<svg width="639" height="393" viewBox="0 0 639 393" fill="none" xmlns="http://www.w3.org/2000/svg">
<path d="M565.91 94.17V91.92H575.5V94.17H571.99V102.82H569.4V94.17H565.91Z" fill="#2F4E58"/>
<path d="M579.06 94.11V102.82H576.56V91.92H580.61L582.71 99.73L584.85 91.92H588.87V102.82H586.37V94.08L583.93 102.82H581.52L579.06 94.11Z" fill="#2F4E58"/>
<path d="M222.13 132C223.08 116.79 229.43 109.55 229.43 109.55C237.87 97.23 254.37 88.36 276.9 88.36C308.24 88.36 328.44 100.97 327.83 134.34L327.74 201.3H294.8L294.4 188.07C286.25 199.68 273.24 203.95 257.56 203.95C236.81 203.95 219.71 191.74 219.71 171.8C219.71 144.93 250.03 135.98 292.57 132.94V128.66C292.57 115.84 286.06 111.16 274.05 111.16C263.26 111.16 255.62 116.1 254.51 131.89L222.13 132ZM269.78 181.15C283.21 181.15 293.38 175.46 293.38 155.3V152.65C269.98 154.68 254.32 157.75 254.32 169.34C254.32 176.47 261.03 181.15 269.78 181.15Z" fill="#2F4E58"/>
<path d="M402.29 89.38C430.37 89.38 437.71 105.85 437.71 135.57V201.29H405.54V143.9C405.54 128.23 404.93 115.42 388.66 115.42C374.41 115.42 368.31 124.97 368.31 145.12V201.29H335.44V91.82H368.31V106.27C373.19 98.12 385.19 89.38 402.29 89.38Z" fill="#2F4E58"/>
<path d="M479.16 129.59L513.62 91.82H558.29L518.9 134.87L557.89 200.55L519.65 201.3L495.64 160.15L479.16 178.13V201.3H445.58V50.24H479.16V129.59Z" fill="#2F4E58"/>
<path d="M215.11 131.79V91.2C213.48 91.01 211.65 91.01 210.02 91.01C194.35 91.61 185.2 99.74 181.52 112.57V91.81H148.45V201.3H181.33V154.16C181.33 137.08 189.68 131.79 205.75 131.79H215.11Z" fill="#2F4E58"/>
<path d="M303.13 235.39H50.5V267.85H303.13V235.39Z" fill="#F8971D"/>
<path d="M544.673 237.134L303.133 311.129L312.641 342.164L554.18 268.169L544.673 237.134Z" fill="#F8971D"/>
<path d="M149.67 51.29V84.28H83.58V111.54H139.52V144.38H83.58V201.3H50.2V51.29H149.67Z" fill="#2F4E58"/>
</svg>
